<?xml version="1.0" encoding="utf-8"?>
<svg viewBox="0 0 150 150" xmlns="http://www.w3.org/2000/svg">
  <path d="M 22.5 76.224 Q 22.5 64.674 25.875 54.774 Q 29.25 44.874 35.625 37.599 Q 42 30.324 51.15 26.199 Q 60.3 22.074 72 22.074 Q 83.55 22.074 92.775 26.349 Q 102 30.624 108.375 37.974 Q 114.75 45.324 118.2 55.149 Q 121.65 64.974 121.65 76.224 Q 121.65 87.474 118.275 97.374 Q 114.9 107.274 108.45 114.699 Q 102 122.124 92.85 126.399 Q 83.7 130.674 72 130.674 Q 60.3 130.674 51.15 126.399 Q 42 122.124 35.625 114.699 Q 29.25 107.274 25.875 97.374 Q 22.5 87.474 22.5 76.224 Z M 37.05 76.224 Q 37.05 84.324 39.375 91.974 Q 41.7 99.624 46.2 105.474 Q 50.7 111.324 57.225 114.849 Q 63.75 118.374 72 118.374 Q 80.7 118.374 87.225 115.149 Q 93.75 111.924 98.175 106.299 Q 102.6 100.674 104.85 92.949 Q 107.1 85.224 107.1 76.224 Q 107.1 68.124 104.7 60.624 Q 102.3 53.124 97.8 47.274 Q 93.3 41.424 86.775 37.899 Q 80.25 34.374 72 34.374 Q 63.75 34.374 57.225 37.599 Q 50.7 40.824 46.2 46.449 Q 41.7 52.074 39.375 59.724 Q 37.05 67.374 37.05 76.224 Z" style="fill: rgba(209, 133, 53, 0.97); white-space: pre;"/>
</svg>